PathFileType	4	(x/y/z)	S01_P20_T04
DataRate	CameraRate	NumFrames	NumMarkers	Units	OrigDataRate	OrigDataStartFrame	OrigNumFrames
240	240	4	51	mm	240	254	406
Frame#	Time	Sternum			R.Acromium			L.Acromium			Top.Head			R.ASIS			L.ASIS			R.PSIS			L.PSIS			R.Great.Tro			L.Great.Tro			R.Iliac.Crest			L.Iliac.Crest			V.Sacral			R.Thigh.Upper.Post			R.Thigh.Lower.Ant			R.Thigh.Lower.Post			R.Thigh.Upper.Ant			R.Knee.Lat			R.Knee.Med			R.Shank.Upper.Post			R.Shank.Lower.Ant			R.Shank.Lower.Post			R.Shank.Upper.Ant			R.Ankle.Lat			R.Ankle.Med			R.Heel.Upper			R.Heel.Med			R.Heel.Lat			R.Toe.Lat			R.Toe.Med			R.Toe.Tip			L.Thigh.Upper.Post			L.Thigh.Lower.Ant			L.Thigh.Lower.Post			L.Thigh.Upper.Ant			L.Knee.Lat			L.Knee.Med			L.Shank.Upper.Post			L.Shank.Lower.Ant			L.Shank.Lower.Post			L.Shank.Upper.Ant			L.Ankle.Lat			L.Ankle.Med			L.Heel.Upper			L.Heel.Med			L.Heel.Lat			L.Toe.Lat			L.Toe.Med			L.Toe.Tip			Cervical.Spine			Back			
		X1	Y1	Z1	X2	Y2	Z2	X3	Y3	Z3	X4	Y4	Z4	X5	Y5	Z5	X6	Y6	Z6	X7	Y7	Z7	X8	Y8	Z8	X9	Y9	Z9	X10	Y10	Z10	X11	Y11	Z11	X12	Y12	Z12	X13	Y13	Z13	X14	Y14	Z14	X15	Y15	Z15	X16	Y16	Z16	X17	Y17	Z17	X18	Y18	Z18	X19	Y19	Z19	X20	Y20	Z20	X21	Y21	Z21	X22	Y22	Z22	X23	Y23	Z23	X24	Y24	Z24	X25	Y25	Z25	X26	Y26	Z26	X27	Y27	Z27	X28	Y28	Z28	X29	Y29	Z29	X30	Y30	Z30	X31	Y31	Z31	X32	Y32	Z32	X33	Y33	Z33	X34	Y34	Z34	X35	Y35	Z35	X36	Y36	Z36	X37	Y37	Z37	X38	Y38	Z38	X39	Y39	Z39	X40	Y40	Z40	X41	Y41	Z41	X42	Y42	Z42	X43	Y43	Z43	X44	Y44	Z44	X45	Y45	Z45	X46	Y46	Z46	X47	Y47	Z47	X48	Y48	Z48	X49	Y49	Z49	X50	Y50	Z50	X51	Y51	Z51	

254	1.0542	0.63097	1251.5	275.2	-106.51	1497.3	461.51	-146.83	1520	134.59	-141.1	1829.5	309.49	-48.409	992.98	432.15	-42.391	1006.9	164.89	-283.63	1042.4	332.05	-284.17	1039.4	229.66	-137.42	944.26	507.51	-138.32	957.93	80.577	-135.77	1090.9	496.49	-155.88	1085.8	89.951	-295.48	1003.4	278.59	-211.04	653.31	480.42	-158.66	569.01	453.92	-227.31	567.46	460.6	-138.24	655.98	473.4	-228.54	494.88	453.61	-218.1	496.73	309.95	-354.08	380.04	472.47	-340.99	278.08	430.43	-392.16	320.89	460.15	-305.33	340.54	449.13	-495.18	141.52	421.71	-462.27	138.6	329.86	-571.52	132.54	362.47	-564.92	101.24	333.07	-571.19	100.24	397.34	-398.46	35.342	460.72	-360.21	41.142	336.38	-297.1	44.975	394.01	-68.863	675.62	101.74	35.763	639.54	103.54	-27.986	596.33	121.65	-13.631	719	82.888	52.049	536.59	117.34	68.203	547.25	255.94	37.983	392.28	96.562	118.66	320.1	121.49	58.155	317.27	98.932	100.5	394.52	114.67	99.23	104.67	131.75	122.34	123.35	228.8	36.81	63.537	178.16	51.613	41.349	212.64	50.356	38.604	149.74	254.53	64.601	114.75	277.67	86.692	235.35	334.69	110.45	181.48	-215.8	1567.1	312.96	-301.53	1248.9	322.74
255	1.0583	6.7899	1251.4	274.34	-100.76	1497.2	460.6	-140.86	1519.8	133.53	-135.18	1829.4	308.54	-42.383	992.96	431.63	-35.987	1006.9	164.37	-277.5	1042.1	331.22	-277.92	1039.1	228.81	-131.3	943.99	506.84	-131.72	957.81	79.97	-129.78	1090.8	495.73	-149.4	1085.6	89.145	-289.23	1003.1	277.7	-204.09	652.91	480.15	-151.29	568.71	454.27	-219.95	566.93	460.63	-131.26	655.83	473.41	-221.08	494.37	454	-210.06	495.85	310.42	-347.99	381.24	472.66	-336.26	279.07	430.9	-386.86	322.64	460.42	-299.8	341.05	449.55	-492.3	144.58	422.16	-459.23	141.23	330.42	-568.54	137.32	362.83	-562.55	106.12	333.25	-568.97	104.87	397.5	-398.17	35.793	460.75	-359.99	41.338	336.49	-296.82	44.654	394.01	-62.377	675.52	101.59	42.249	639.41	103.5	-21.544	596.21	121.53	-7.0912	718.89	82.813	58.703	536.51	117.43	74.511	547.41	255.85	43.65	392.45	96.381	123.33	319.35	121.84	62.973	317.23	98.811	106.02	393.98	115.02	100.71	104.3	131.77	123.98	122.58	228.93	37.611	64.238	178.1	51.877	41.797	212.61	50.695	39.022	149.72	255.4	61.918	114.96	278.86	83.502	235.59	336.33	106.34	181.8	-209.95	1567	311.88	-295.61	1248.7	321.75
256	1.0625	12.935	1251.4	273.48	-94.999	1497.1	459.68	-134.87	1519.7	132.47	-129.27	1829.4	307.56	-36.37	993.03	431.1	-29.602	1006.9	163.83	-271.37	1041.9	330.42	-271.67	1039	227.99	-125.17	943.81	506.15	-125.18	957.78	79.371	-123.76	1090.9	494.96	-142.94	1085.5	88.364	-283	1002.9	276.85	-196.96	652.53	479.91	-143.7	568.45	454.68	-212.37	566.41	460.7	-124.12	655.75	473.48	-213.36	493.9	454.45	-201.71	494.97	310.94	-341.64	382.52	472.89	-331.28	280.16	431.43	-381.3	324.49	460.72	-294.03	341.65	450.03	-489.18	147.82	422.64	-455.92	143.99	331	-565.23	142.37	363.19	-559.89	111.28	333.41	-566.49	109.79	397.65	-397.83	36.351	460.77	-359.72	41.596	336.61	-296.53	44.317	394.01	-55.976	675.49	101.41	48.638	639.3	103.41	-15.202	596.14	121.39	-0.63327	718.82	82.689	65.239	536.46	117.51	80.71	547.59	255.75	49.185	392.66	96.171	127.86	318.65	122.15	67.659	317.22	98.66	111.42	393.48	115.31	102.09	103.98	131.77	125.5	121.88	229.02	38.344	64.928	178.03	52.097	42.255	212.55	50.989	39.451	149.69	256.18	59.392	115.12	279.93	80.471	235.79	337.83	102.4	182.08	-204.11	1567	310.8	-289.68	1248.5	320.75
257	1.0667	19.062	1251.5	272.61	-89.244	1497.2	458.75	-128.87	1519.7	131.41	-123.35	1829.5	306.56	-30.373	993.2	430.55	-23.242	1007.1	163.29	-265.25	1041.7	329.64	-265.43	1039	227.19	-119.03	943.71	505.46	-118.71	957.82	78.783	-117.73	1091.1	494.17	-136.51	1085.5	87.61	-276.77	1002.8	276.02	-189.68	652.18	479.71	-135.89	568.24	455.16	-204.57	565.91	460.81	-116.81	655.72	473.61	-205.37	493.45	454.96	-193.07	494.1	311.53	-335.01	383.89	473.16	-326.06	281.36	432.01	-375.46	326.46	461.05	-288	342.32	450.55	-485.78	151.24	423.13	-452.34	146.89	331.61	-561.6	147.69	363.54	-556.93	116.73	333.56	-563.73	114.99	397.78	-397.42	37.032	460.79	-359.41	41.927	336.74	-296.21	43.962	394.02	-49.665	675.51	101.21	54.923	639.22	103.28	-8.9697	596.11	121.22	5.7396	718.78	82.524	71.639	536.43	117.56	86.794	547.79	255.64	54.565	392.89	95.946	132.24	317.98	122.42	72.194	317.24	98.491	116.66	393	115.56	103.36	103.7	131.76	126.91	121.23	229.07	39.018	65.598	177.93	52.289	42.714	212.47	51.25	39.882	149.63	256.88	57.035	115.26	280.88	77.61	235.98	339.2	98.68	182.35	-198.26	1567	309.7	-283.73	1248.5	319.76
